<svg width="17" height="17" viewBox="0 0 25 25" fill="none" xmlns="http://www.w3.org/2000/svg">
<path d="M24.4602 10.3134L24.4805 10.3785C24.5027 10.4908 24.4982 10.6072 24.467 10.718C24.4295 10.8515 24.3547 10.9716 24.2515 11.0643L24.2514 11.0642L24.2447 11.0705L19.1079 15.8552L18.9064 16.0429L18.9574 16.3136L20.2539 23.2C20.2758 23.3359 20.2598 23.4752 20.2073 23.6026C20.1544 23.7313 20.0665 23.8426 19.9535 23.9239C19.8406 24.0052 19.7072 24.0533 19.5683 24.0627C19.4295 24.0721 19.2908 24.0424 19.1679 23.9771L19.1607 23.9732L19.1533 23.9696L12.719 20.8139L12.4991 20.706L12.2792 20.8136L5.82988 23.968C5.69942 24.0294 5.5554 24.0565 5.4115 24.0465C5.27042 24.0368 5.13409 23.9919 5.01496 23.9159C4.90656 23.8353 4.82206 23.7267 4.77059 23.6017C4.71846 23.4751 4.70225 23.3367 4.72368 23.2015L6.05556 16.3167L6.10867 16.0422L5.90252 15.8532L0.721758 11.104C0.622757 11.0072 0.553002 10.8844 0.520533 10.7496C0.487636 10.6131 0.494379 10.4701 0.539968 10.3373C0.585558 10.2045 0.6681 10.0875 0.777897 10C0.887694 9.9125 1.02018 9.85815 1.1598 9.84335L1.17801 9.84142L1.19604 9.83816L8.30518 8.55273L8.55189 8.50812L8.66372 8.28373L11.8434 1.90359C11.9065 1.78238 12.0015 1.6807 12.1183 1.60956C12.2358 1.5379 12.3708 1.5 12.5085 1.5C12.6461 1.5 12.7812 1.5379 12.8987 1.60956C13.0157 1.68085 13.1108 1.78282 13.1739 1.90438C13.1742 1.90499 13.1746 1.9056 13.1749 1.90621L16.3863 8.28553L16.4991 8.50965L16.7462 8.55314L23.8554 9.80429L23.8553 9.80446L23.8683 9.80639C24.0046 9.82672 24.1325 9.88507 24.2372 9.97474C24.3419 10.0644 24.4191 10.1818 24.4602 10.3134Z" stroke="black"/>
</svg>
