<svg width="17" height="17" viewBox="0 0 25 25" fill="none" xmlns="http://www.w3.org/2000/svg">
<path d="M24.9375 10.1645C24.8685 9.9432 24.7385 9.74581 24.5624 9.59499C24.3863 9.44418 24.1713 9.34605 23.942 9.31186L16.8329 8.06071L13.6193 1.67712C13.5142 1.47315 13.3549 1.30206 13.1589 1.18262C12.963 1.06318 12.738 1 12.5085 1C12.279 1 12.054 1.06318 11.858 1.18262C11.6621 1.30206 11.5028 1.47315 11.3977 1.67712L8.21621 8.06071L1.10707 9.34614C0.872811 9.37098 0.650508 9.46217 0.466281 9.60898C0.282054 9.7558 0.143557 9.95215 0.0670624 10.175C-0.00943187 10.3978 -0.0207454 10.6378 0.0344512 10.8668C0.0896478 11.0958 0.209061 11.3043 0.378661 11.4678L5.56466 16.2218L4.23138 23.1138C4.1933 23.3426 4.21992 23.5776 4.30825 23.7921C4.39657 24.0066 4.54309 24.1921 4.73127 24.3278C4.92431 24.4546 5.14673 24.5295 5.37711 24.5454C5.60749 24.5612 5.83808 24.5176 6.04669 24.4185L12.4988 21.2628L18.9331 24.4185C19.1384 24.5277 19.3701 24.5772 19.6021 24.5615C19.8341 24.5458 20.057 24.4655 20.2457 24.3297C20.4344 24.1938 20.5813 24.0079 20.6697 23.7929C20.7582 23.5779 20.7847 23.3424 20.7463 23.1131L19.4487 16.221L24.5854 11.4364C24.7593 11.2804 24.8851 11.0782 24.9484 10.8534C25.0116 10.6286 25.0096 10.3904 24.9425 10.1667L24.9375 10.1645Z" fill="url(#paint0_linear_858_2982)"/>
<defs>
<linearGradient id="paint0_linear_858_2982" x1="12.4972" y1="1" x2="12.4972" y2="24.5644" gradientUnits="userSpaceOnUse">
<stop stop-color="#C198FB"/>
<stop offset="1" stop-color="#D6BAFE"/>
</linearGradient>
</defs>
</svg>
