<svg width="17" height="20" viewBox="0 0 15 12" fill="none" xmlns="http://www.w3.org/2000/svg">
<path fill-rule="evenodd" clip-rule="evenodd" d="M14.6341 5.33287C14.6341 4.36695 14.319 3.47564 13.6887 2.65548C13.0585 1.83531 12.1976 1.18832 11.1078 0.712624C10.018 0.236903 8.83321 0 7.55155 0C6.26991 0 5.08507 0.236918 3.9953 0.712624C2.9055 1.18834 2.04468 1.83531 1.41436 2.65548C0.784079 3.47567 0.468994 4.36689 0.468994 5.33287C0.468994 6.15849 0.706634 6.93674 1.18377 7.6658C1.65912 8.39483 2.31402 9.00904 3.14495 9.50844C3.07808 9.67428 3.00936 9.82735 2.93897 9.9659C2.86859 10.1045 2.78403 10.2393 2.68722 10.3669C2.59035 10.4944 2.51467 10.5965 2.46013 10.6694C2.40559 10.7423 2.31926 10.8444 2.19781 10.9774C2.07635 11.1086 2.00065 11.1961 1.96721 11.238C1.96721 11.2307 1.95314 11.2471 1.92673 11.2854C1.90032 11.3237 1.88449 11.3401 1.88097 11.3383C1.87744 11.3365 1.86336 11.3529 1.84048 11.3912C1.81761 11.4295 1.80523 11.4477 1.80523 11.4477L1.78058 11.5006C1.76999 11.5206 1.76297 11.5425 1.76124 11.5625C1.75772 11.5826 1.75598 11.6063 1.75598 11.63C1.75598 11.6537 1.7595 11.6774 1.76657 11.6974C1.78065 11.7886 1.81939 11.8615 1.88277 11.9162C1.94614 11.9708 2.01484 12 2.08874 12H2.11865C2.45314 11.9508 2.74186 11.8961 2.98308 11.8342C4.01653 11.5571 4.94781 11.1124 5.78055 10.5019C6.38439 10.613 6.97417 10.6677 7.55163 10.6677C8.83327 10.6677 10.0181 10.4308 11.1079 9.95507C12.1976 9.47937 13.0585 8.83239 13.6888 8.01222C14.3191 7.19022 14.6342 6.29716 14.6342 5.33301L14.6341 5.33287Z" fill="#96AAB1"/>
</svg>
