<svg width="17" height="17" viewBox="0 0 15 13" fill="none" xmlns="http://www.w3.org/2000/svg">
<path d="M12.542 5.22698C13.3055 5.22698 14.2131 5.80013 14.1925 6.51609C14.1925 7.04174 13.3469 11.7531 12.9545 12.2624C12.542 12.7717 11.4893 12.9625 10.8708 12.9625H7.13572C5.13416 12.9625 3.40115 12.2943 2.94727 12.1032H1.44077C1.29286 12.1036 1.15086 12.0585 1.04629 11.9778C0.941721 11.8971 0.883229 11.7875 0.883795 11.6734V5.65678C0.883122 5.54266 0.941581 5.43306 1.04617 5.35235C1.15077 5.27164 1.29283 5.2265 1.44077 5.22698H2.98861C3.21535 5.16334 4.35048 4.84513 4.88686 4.12868C5.07227 3.89015 5.2169 3.41226 5.36131 2.951C5.58846 2.25044 5.79442 1.58191 6.24872 1.23178C6.61989 0.929572 7.3215 0.849933 7.98196 1.0248C8.86937 1.24765 9.48826 1.86853 9.6117 2.68022C9.77691 3.68299 9.50903 4.79735 9.26108 5.22696H12.542V5.22698Z" fill="#4FB2FF"/>
</svg>
