<svg width="17" height="17" viewBox="0 0 14 13" fill="none" xmlns="http://www.w3.org/2000/svg">
<path d="M11.6582 5.22698C12.4217 5.22698 13.3293 5.80013 13.3087 6.51609C13.3087 7.04174 12.4631 11.7531 12.0707 12.2624C11.6582 12.7717 10.6056 12.9625 9.98706 12.9625H6.25193C4.25037 12.9625 2.51736 12.2943 2.06348 12.1032H0.556979C0.409069 12.1036 0.267072 12.0585 0.162502 11.9778C0.0579322 11.8971 -0.000560501 11.7875 5.73786e-06 11.6734V5.65678C-0.000666714 5.54266 0.0577919 5.43306 0.162385 5.35235C0.266978 5.27164 0.409037 5.2265 0.556979 5.22698H2.10482C2.33156 5.16334 3.46669 4.84513 4.00307 4.12868C4.18848 3.89015 4.33311 3.41226 4.47752 2.951C4.70467 2.25044 4.91063 1.58191 5.36493 1.23178C5.7361 0.929572 6.43771 0.849933 7.09817 1.0248C7.98558 1.24765 8.60447 1.86853 8.72791 2.68022C8.89312 3.68299 8.62524 4.79735 8.3773 5.22696H11.6582V5.22698Z" fill="#96AAB1"/>
</svg>
